<svg width="42" height="42" viewBox="0 0 42 42" fill="none" xmlns="http://www.w3.org/2000/svg">
<path d="M39.3885 20.2732C36.5637 20.2732 33.9417 18.8703 32.3746 16.5193L31.8124 15.6759L31.2501 16.5193C29.683 18.8703 27.061 20.2732 24.2363 20.2732H21.6758V31.1099C21.6758 33.7292 22.855 36.1911 24.8256 37.8433H10.8634V35.1402H19.6485V22.9763H5.45721V28.3825H1.40257V1.35155H31.1366V13.5155H32.4882V0H0.0510254V29.338L9.90786 39.1949H26.9029L31.8124 42L37.5227 38.7374C40.2528 37.1777 41.949 34.2543 41.949 31.1099V20.2732H39.3885ZM9.51185 36.8878L2.35812 29.734H9.51185V36.8878ZM6.80876 28.3825V24.3278H18.2969V33.7887H10.8634V28.3825H6.80876ZM40.5974 31.1099C40.5974 33.7711 39.1621 36.2438 36.8523 37.5642L31.8124 40.4444L26.7725 37.5642C24.4627 36.2438 23.0273 33.7711 23.0273 31.1099V21.6248H24.2363C27.1962 21.6248 29.9641 20.2969 31.8124 18.031C33.6606 20.2969 36.4286 21.6248 39.3885 21.6248H40.5974V31.1099Z" fill="#fff"/>
<path d="M37.8944 27.0308V31.1097C37.8944 32.8032 36.9807 34.3771 35.5109 35.2171L36.1813 36.3902C38.0714 35.3103 39.2459 33.2871 39.2459 31.1097V27.0308H37.8944Z" fill="#fff"/>
<path d="M4.10565 2.70312V6.75777H28.4335V2.70312H4.10565ZM27.0819 5.40622H5.4572V4.05467H27.0819V5.40622Z" fill="#fff"/>
<path d="M37.4166 23.1743L28.4335 32.1574L26.2082 29.9321L25.2527 30.8876L28.4335 34.0685L38.3721 24.1299L37.4166 23.1743Z" fill="#fff"/>
<path d="M16.9454 25.6792H8.16031V27.0307H16.9454V25.6792Z" fill="#fff"/>
<path d="M16.9453 28.3823H12.2149V29.7339H16.9453V28.3823Z" fill="#fff"/>
<path d="M16.9453 31.0854H12.2149V32.437H16.9453V31.0854Z" fill="#fff"/>
<path d="M25.7304 9.46094H4.10565V10.8125H25.7304V9.46094Z" fill="#fff"/>
<path d="M25.7304 12.1641H4.10565V13.5156H25.7304V12.1641Z" fill="#fff"/>
<path d="M25.7304 14.8672H4.10565V16.2187H25.7304V14.8672Z" fill="#fff"/>
<path d="M16.9453 17.5703H4.10565V18.9219H16.9453V17.5703Z" fill="#fff"/>
<path d="M16.9453 20.2734H4.10565V21.625H16.9453V20.2734Z" fill="#fff"/>
<path d="M28.4335 9.46094H27.082V10.8125H28.4335V9.46094Z" fill="#fff"/>
<path d="M28.4335 12.1641H27.082V13.5156H28.4335V12.1641Z" fill="#fff"/>
<path d="M28.4335 14.8672H27.082V16.2187H28.4335V14.8672Z" fill="#fff"/>
<path d="M19.6485 17.5703H18.2969V18.9219H19.6485V17.5703Z" fill="#fff"/>
<path d="M19.6485 20.2734H18.2969V21.625H19.6485V20.2734Z" fill="#fff"/>
</svg>
