<?xml version="1.0" encoding="utf-8"?><svg xmlns="http://www.w3.org/2000/svg" xmlns:xlink="http://www.w3.org/1999/xlink"><symbol viewBox="0 0 13 12" id="arrow-left" xmlns="http://www.w3.org/2000/svg"><path d="M8.586 6.707H0v-2h8.586L5.293 1.414 6.707 0l5.707 5.707-5.707 5.707L5.293 10l3.293-3.293z"/></symbol><symbol viewBox="0 0 37 36" id="catalogue" xmlns="http://www.w3.org/2000/svg"><g clip-path="url(#ba)"><path d="M34.39 4.412V.527A.527.527 0 0 0 33.864 0H22.72a4.751 4.751 0 0 0-4.22 2.573A4.751 4.751 0 0 0 14.281 0H3.137a.527.527 0 0 0-.528.527v3.885A2.641 2.641 0 0 0 .5 6.996V28.09a2.64 2.64 0 0 0 2.637 2.637h11.25v1.582a2.64 2.64 0 0 1-2.637 2.636H7.355a.527.527 0 0 0 0 1.055h22.29a.527.527 0 1 0 0-1.055H25.25a2.64 2.64 0 0 1-2.637-2.636v-1.582h11.25A2.64 2.64 0 0 0 36.5 28.09V6.996a2.641 2.641 0 0 0-2.11-2.584zM3.665 1.055h10.617a3.696 3.696 0 0 1 3.692 3.691.527.527 0 1 0 1.054 0 3.696 3.696 0 0 1 3.692-3.691h10.617v20.18H22.719a4.74 4.74 0 0 0-3.692 1.766V6.855a.527.527 0 1 0-1.054 0v16.146a4.74 4.74 0 0 0-3.692-1.767H3.664V1.054zM22.72 23.344c-1.36 0-2.648.595-3.542 1.596a3.697 3.697 0 0 1 3.542-2.65h10.617v1.054H22.719zm10.617 1.054v1.055h-13.19a3.697 3.697 0 0 1 2.573-1.055h10.617zM3.664 22.29h10.617a3.697 3.697 0 0 1 3.542 2.651 4.761 4.761 0 0 0-3.542-1.596H3.664V22.29zM1.554 6.996c0-.687.442-1.274 1.055-1.491v19.948H1.555V6.996zm21.116 27.95h-8.34a3.68 3.68 0 0 0 1.111-2.637v-1.582h6.118v1.582a3.68 3.68 0 0 0 1.111 2.636zm12.775-6.856c0 .872-.71 1.582-1.582 1.582H3.137c-.873 0-1.582-.71-1.582-1.582v-1.582h1.582a.527.527 0 0 0 .527-.527v-1.583h10.617c.968 0 1.891.39 2.574 1.055H5.246a.527.527 0 0 0 0 1.055h30.2v1.582zm0-2.637h-1.054V5.505a1.585 1.585 0 0 1 1.054 1.491v18.457z"/><path d="M11.617 7.875l.646-.647a.527.527 0 0 0-.745-.745l-.647.646-.647-.646a.527.527 0 0 0-.745.745l.646.647-.646.647a.527.527 0 0 0 .745.745l.647-.646.647.646a.526.526 0 0 0 .745 0 .527.527 0 0 0 0-.745l-.646-.647z"/><path d="M14.387 4.219H7.355a.527.527 0 0 0-.527.527v6.258c0 .291.236.527.527.527h7.032a.527.527 0 0 0 .527-.527V4.746a.527.527 0 0 0-.527-.527zm-.528 6.258H7.883V5.273h5.976v5.204zm.528 2.179H7.355a.527.527 0 0 0 0 1.055h7.032a.527.527 0 1 0 0-1.055zm0 2.18H7.355a.527.527 0 0 0 0 1.055h7.032a.527.527 0 1 0 0-1.055zm13.134-6.314l-.646-.647.646-.647a.528.528 0 0 0-.745-.745l-.647.646-.647-.646a.527.527 0 0 0-.745.745l.646.647-.646.647a.527.527 0 1 0 .745.745l.647-.646.647.646a.526.526 0 0 0 .745 0 .527.527 0 0 0 0-.745z"/><path d="M29.645 4.219h-7.032a.527.527 0 0 0-.527.527v6.258c0 .291.236.527.527.527h7.032a.527.527 0 0 0 .527-.527V4.746a.527.527 0 0 0-.527-.527zm-.528 6.258h-5.976V5.273h5.976v5.204zm.528 2.179h-7.032a.527.527 0 1 0 0 1.055h7.032a.527.527 0 1 0 0-1.055zm0 2.18h-7.032a.527.527 0 1 0 0 1.055h7.032a.527.527 0 1 0 0-1.055zm-15.258 2.18H7.355a.527.527 0 0 0 0 1.054h7.032a.527.527 0 1 0 0-1.054zm15.258 0h-7.032a.527.527 0 1 0 0 1.054h7.032a.527.527 0 1 0 0-1.054z"/></g><defs><clipPath id="ba"><path transform="translate(.5)" d="M0 0h36v36H0z"/></clipPath></defs></symbol><symbol viewBox="0 0 31 32" id="facebook" xmlns="http://www.w3.org/2000/svg"><path fill-rule="evenodd" clip-rule="evenodd" d="M15.514 0C7.013 0 .122 6.95.122 15.522c0 8.573 6.891 15.523 15.392 15.523 8.5 0 15.391-6.95 15.391-15.523C30.905 6.95 24.015 0 15.514 0zm1.604 16.204v8.445h-3.465v-8.444h-1.73v-2.91h1.73v-1.748c0-2.374.978-3.786 3.755-3.786h2.311v2.91h-1.445c-1.08 0-1.152.408-1.152 1.167l-.004 1.456h2.618l-.306 2.91h-2.312z"/></symbol><symbol viewBox="0 0 28 22" id="helmet" xmlns="http://www.w3.org/2000/svg"><path d="M26.36 16.883v-2.602c0-2.7-.872-5.268-2.52-7.424a12.54 12.54 0 0 0-5.741-4.18A2.464 2.464 0 0 0 15.64.336h-3.282a2.464 2.464 0 0 0-2.457 2.34 12.54 12.54 0 0 0-5.743 4.181 12.13 12.13 0 0 0-2.518 7.424v2.602A2.465 2.465 0 0 0 0 19.203a2.464 2.464 0 0 0 2.46 2.461h23.08a2.464 2.464 0 0 0 2.46-2.46c0-1.07-.686-1.982-1.64-2.32zM3.28 14.281c0-2.958 1.264-5.727 3.336-7.703V9.36a.82.82 0 0 0 1.64 0V5.292c.518-.33 1.066-.618 1.641-.858V11a.82.82 0 0 0 1.641 0V2.797c0-.452.368-.82.82-.82h3.282c.452 0 .82.368.82.82V11a.82.82 0 0 0 1.64 0V4.434c.576.24 1.124.528 1.641.858v4.067a.82.82 0 0 0 1.64 0V6.58c2.073 1.975 3.337 4.744 3.337 7.702v2.461H3.28v-2.46zm22.258 5.742H2.461a.821.821 0 0 1 0-1.64h23.078a.821.821 0 0 1 0 1.64z"/></symbol><symbol viewBox="0 0 28 22" id="helmet-wt" xmlns="http://www.w3.org/2000/svg"><path d="M26.36 16.883v-2.602c0-2.7-.872-5.268-2.52-7.424a12.54 12.54 0 0 0-5.741-4.18A2.464 2.464 0 0 0 15.64.336h-3.282a2.464 2.464 0 0 0-2.457 2.34 12.54 12.54 0 0 0-5.743 4.181 12.13 12.13 0 0 0-2.518 7.424v2.602A2.465 2.465 0 0 0 0 19.203a2.464 2.464 0 0 0 2.46 2.461h23.08a2.464 2.464 0 0 0 2.46-2.46c0-1.07-.686-1.982-1.64-2.32zM3.28 14.281c0-2.958 1.264-5.727 3.336-7.703V9.36a.82.82 0 0 0 1.64 0V5.292c.518-.33 1.066-.618 1.641-.858V11a.82.82 0 0 0 1.641 0V2.797c0-.452.368-.82.82-.82h3.282c.452 0 .82.368.82.82V11a.82.82 0 0 0 1.64 0V4.434c.576.24 1.124.528 1.641.858v4.067a.82.82 0 0 0 1.64 0V6.58c2.073 1.975 3.337 4.744 3.337 7.702v2.461H3.28v-2.46zm22.258 5.742H2.461a.821.821 0 0 1 0-1.64h23.078a.821.821 0 0 1 0 1.64z"/></symbol><symbol viewBox="0 0 31 32" id="instagram" xmlns="http://www.w3.org/2000/svg"><path fill-rule="evenodd" clip-rule="evenodd" d="M15.453 0C6.953 0 .06 6.95.06 15.522c0 8.573 6.891 15.523 15.392 15.523 8.5 0 15.392-6.95 15.392-15.523C30.845 6.95 23.953 0 15.453 0zm-3.384 7.294c.875-.04 1.155-.05 3.385-.05h-.003c2.23 0 2.509.01 3.384.05.874.04 1.471.18 1.995.384.54.212.997.494 1.453.955.457.46.737.922.948 1.467.202.526.34 1.127.381 2.009.04.883.05 1.165.05 3.413 0 2.249-.01 2.53-.05 3.413-.04.881-.18 1.483-.381 2.01a4.067 4.067 0 0 1-.948 1.466c-.456.46-.913.744-1.453.955-.522.205-1.12.345-1.993.385-.876.04-1.155.05-3.384.05-2.23 0-2.51-.01-3.385-.05-.874-.04-1.47-.18-1.993-.385a4.016 4.016 0 0 1-1.453-.955 4.06 4.06 0 0 1-.947-1.467c-.203-.526-.341-1.128-.381-2.009-.04-.883-.05-1.164-.05-3.413 0-2.248.01-2.53.05-3.413.039-.881.177-1.483.38-2.01a4.086 4.086 0 0 1 .948-1.466c.456-.46.914-.743 1.454-.955.522-.204 1.119-.344 1.993-.384z"/><path fill-rule="evenodd" clip-rule="evenodd" d="M14.717 8.735h.737c2.191 0 2.451.008 3.317.048.8.037 1.234.172 1.524.285.383.15.656.33.943.62.287.29.465.565.614.951.113.292.247.73.283 1.537.04.873.048 1.135.048 3.344 0 2.21-.009 2.472-.048 3.345-.037.807-.17 1.245-.283 1.536a2.563 2.563 0 0 1-.614.951c-.287.29-.56.47-.943.62-.29.113-.724.248-1.524.285-.866.04-1.126.048-3.318.048-2.191 0-2.451-.008-3.317-.048-.8-.037-1.234-.172-1.524-.286a2.54 2.54 0 0 1-.944-.619 2.568 2.568 0 0 1-.614-.951c-.113-.292-.246-.73-.283-1.537-.04-.873-.047-1.135-.047-3.346 0-2.21.008-2.471.047-3.344.037-.807.17-1.245.283-1.537.149-.386.327-.662.614-.952.287-.29.561-.47.944-.62.29-.113.724-.248 1.524-.285.758-.035 1.051-.045 2.581-.047v.002zm5.118 1.375a.99.99 0 0 0-.985.993.99.99 0 0 0 .985.994.99.99 0 0 0 .985-.994.99.99 0 0 0-.985-.993zm-8.597 5.413c0-2.348 1.887-4.252 4.215-4.252 2.329 0 4.216 1.904 4.216 4.252 0 2.347-1.887 4.25-4.215 4.25-2.329 0-4.216-1.903-4.216-4.25z"/><path fill-rule="evenodd" clip-rule="evenodd" d="M15.454 12.763c1.51 0 2.736 1.236 2.736 2.76 0 1.524-1.225 2.76-2.736 2.76-1.512 0-2.737-1.236-2.737-2.76 0-1.524 1.225-2.76 2.737-2.76z"/></symbol><symbol viewBox="0 0 16 16" id="phone" xmlns="http://www.w3.org/2000/svg"><path d="M12.279 11.263l-.766.767c-1.303 1.303-3.522.192-5.63-1.917-2.108-2.111-3.218-4.33-1.915-5.632l.766-.767c.123-.122.179-.18.246-.25.092-.096.167-.18.228-.256C4.042 1.585 3.25.571 2.823.148c-.22-.217-.715-.177-.896.002-.483.476-.642.635-1.144 1.144C-1.021 3.1.36 7.89 4.232 11.766c3.87 3.875 8.66 5.257 10.479 3.438.457-.442.83-.815 1.117-1.118.207-.22.245-.672.006-.92-.397-.412-1.37-1.17-3.05-2.377a6.837 6.837 0 0 0-.505.474z"/></symbol><symbol viewBox="0 0 14 14" id="plus" xmlns="http://www.w3.org/2000/svg"><path fill-rule="evenodd" clip-rule="evenodd" d="M6.3 6.3V0h1.4v6.3H14v1.4H7.7V14H6.3V7.7H0V6.3h6.3z"/></symbol><symbol viewBox="0 0 30 30" id="skype" xmlns="http://www.w3.org/2000/svg"><path fill-rule="evenodd" clip-rule="evenodd" d="M30 15c0 8.284-6.716 15-15 15-8.284 0-15-6.716-15-15C0 6.716 6.716 0 15 0c8.284 0 15 6.716 15 15zm-7.284.083c0 .554-.06 1.094-.176 1.615.294.585.46 1.242.46 1.939C23 21.046 21.019 23 18.575 23a4.456 4.456 0 0 1-2.092-.519 7.79 7.79 0 0 1-1.398.127c-4.215 0-7.632-3.369-7.632-7.525 0-.518.054-1.024.155-1.512A4.304 4.304 0 0 1 7 11.364C7 8.953 8.981 7 11.426 7c.865 0 1.672.246 2.354.67.425-.073.86-.111 1.305-.111 4.215 0 7.63 3.37 7.63 7.524z"/><path fill-rule="evenodd" clip-rule="evenodd" d="M19 18.68c-.354.493-.875.882-1.552 1.159-.67.274-1.47.414-2.384.414-1.096 0-2.015-.19-2.733-.566a3.542 3.542 0 0 1-1.256-1.1c-.324-.46-.488-.917-.488-1.359a.94.94 0 0 1 .318-.71c.209-.194.477-.291.797-.291.261 0 .488.076.671.23.176.147.327.365.448.644.136.306.283.564.438.765.15.197.366.36.64.49.277.128.65.194 1.109.194.63 0 1.148-.133 1.537-.395.38-.255.565-.563.565-.939a.922.922 0 0 0-.294-.713 2.137 2.137 0 0 0-.815-.444 16.496 16.496 0 0 0-1.4-.342c-.793-.167-1.466-.364-2-.59-.547-.229-.989-.547-1.311-.945-.328-.405-.494-.912-.494-1.508 0-.568.174-1.08.518-1.522.34-.439.84-.782 1.482-1.015.633-.23 1.386-.347 2.239-.347.68 0 1.28.077 1.78.231.504.154.927.362 1.26.619.336.26.586.535.742.822.159.29.24.58.24.858 0 .27-.106.514-.314.726a1.053 1.053 0 0 1-.783.324c-.283 0-.505-.068-.657-.202-.143-.125-.292-.32-.456-.598a2.493 2.493 0 0 0-.685-.836c-.257-.193-.685-.29-1.275-.29-.546 0-.991.108-1.322.323-.318.205-.473.441-.473.721 0 .17.05.315.153.437.108.132.261.245.455.341.2.1.407.18.614.235.212.058.568.145 1.056.256a17.7 17.7 0 0 1 1.687.436c.508.16.947.356 1.306.587.365.234.654.535.86.895.206.362.31.807.31 1.326 0 .62-.18 1.184-.534 1.678z"/></symbol><symbol viewBox="0 0 30 30" id="telegram" xmlns="http://www.w3.org/2000/svg"><path fill-rule="evenodd" clip-rule="evenodd" d="M15 30c8.284 0 15-6.716 15-15 0-8.284-6.716-15-15-15C6.716 0 0 6.716 0 15c0 8.284 6.716 15 15 15zm-2.75-8.125c.365 0 .532-.163.733-.359L13 21.5l1.802-1.752 3.748 2.77c.69.38 1.188.183 1.36-.641l2.46-11.596c.252-1.01-.385-1.468-1.045-1.168L6.877 14.684c-.987.396-.981.946-.18 1.191l3.708 1.157 8.584-5.415c.405-.246.777-.114.472.157l-6.955 6.277h-.001l-.255 3.824z"/></symbol><symbol viewBox="0 0 31 32" id="vk" xmlns="http://www.w3.org/2000/svg"><path fill-rule="evenodd" clip-rule="evenodd" d="M15.392 0C6.892 0 0 6.95 0 15.522c0 8.573 6.891 15.523 15.392 15.523 8.5 0 15.391-6.95 15.391-15.523C30.783 6.95 23.893 0 15.392 0zm1.253 20.423c-.152.161-.448.194-.448.194h-.981s-2.165.128-4.072-1.837c-2.08-2.143-3.917-6.397-3.917-6.397s-.106-.28.01-.413c.129-.152.481-.162.481-.162l2.346-.015s.22.036.379.151c.13.095.204.273.204.273s.379.949.88 1.807c.98 1.677 1.437 2.043 1.77 1.864.484-.262.34-2.37.34-2.37s.008-.765-.245-1.106c-.196-.264-.565-.34-.728-.362-.133-.018.084-.321.365-.457.422-.204 1.168-.216 2.049-.208.686.007.884.05 1.152.114.622.149.603.625.56 1.654-.012.307-.026.664-.026 1.076 0 .093-.003.192-.006.294-.014.526-.031 1.13.32 1.354.18.115.619.017 1.718-1.83.521-.876.912-1.906.912-1.906s.086-.183.218-.262c.136-.08.319-.056.319-.056l2.468-.015s.742-.088.862.244c.126.348-.277 1.16-1.286 2.49-.957 1.264-1.423 1.729-1.38 2.14.032.3.335.572.915 1.105 1.213 1.114 1.537 1.7 1.616 1.841l.014.026c.544.893-.603.963-.603.963l-2.193.03s-.47.092-1.09-.33c-.325-.22-.642-.58-.945-.923-.461-.524-.887-1.008-1.251-.893-.611.192-.593 1.495-.593 1.495s.005.279-.134.427z"/></symbol><symbol viewBox="0 0 30 30" id="whatsapp" xmlns="http://www.w3.org/2000/svg"><path fill-rule="evenodd" clip-rule="evenodd" d="M30 15c0 8.285-6.716 15-15 15-8.284 0-15-6.715-15-15C0 6.716 6.716 0 15 0c8.284 0 15 6.716 15 15zm-14.51 8.346h.004c4.918-.002 8.918-4.003 8.92-8.92a8.865 8.865 0 0 0-2.61-6.31 8.862 8.862 0 0 0-6.31-2.616c-4.916 0-8.917 4.001-8.92 8.92 0 1.571.41 3.106 1.191 4.458L6.5 23.5l4.728-1.24a8.911 8.911 0 0 0 4.263 1.086z"/><path fill-rule="evenodd" clip-rule="evenodd" d="M11.718 20.806l-.27-.16-2.806.736.748-2.736-.176-.28a7.396 7.396 0 0 1-1.133-3.946c.001-4.087 3.327-7.413 7.416-7.413a7.368 7.368 0 0 1 5.242 2.174 7.369 7.369 0 0 1 2.169 5.245c-.002 4.088-3.328 7.414-7.414 7.414h-.003a7.403 7.403 0 0 1-3.773-1.034zm7.965-4.46c.155.076.26.127.305.201.056.093.056.54-.13 1.06s-1.076.996-1.504 1.06c-.384.057-.87.081-1.404-.089-.324-.102-.739-.24-1.27-.469-2.09-.902-3.502-2.927-3.769-3.31a2.866 2.866 0 0 0-.039-.055l-.002-.003c-.117-.157-.908-1.211-.908-2.303 0-1.026.505-1.564.737-1.812l.043-.047a.819.819 0 0 1 .594-.279c.15 0 .298.002.428.008h.05c.13 0 .291-.001.451.383.062.147.151.366.246.597.192.467.404.983.441 1.057.056.112.093.242.019.391l-.031.063a1.265 1.265 0 0 1-.192.309l-.114.137a3.707 3.707 0 0 1-.22.253c-.112.111-.228.232-.098.455s.577.953 1.24 1.544a5.756 5.756 0 0 0 1.645 1.04c.061.026.11.048.147.066.223.112.353.093.483-.056.13-.148.557-.65.706-.874.148-.223.297-.185.501-.111.204.074 1.3.613 1.523.725l.122.06z"/></symbol></svg>