<svg width="37" height="36" viewBox="0 0 37 36" fill="none" xmlns="http://www.w3.org/2000/svg">
<g clip-path="url(#clip0)">
<path d="M34.3906 4.41246V0.527344C34.3906 0.236039 34.1545 0 33.8633 0H22.7188C20.8844 0 19.2897 1.04611 18.5 2.57302C17.7103 1.04611 16.1156 0 14.2812 0H3.13672C2.84548 0 2.60938 0.236039 2.60938 0.527344V4.41246C1.40731 4.65743 0.5 5.7228 0.5 6.99609V28.0898C0.5 29.5438 1.6828 30.7266 3.13672 30.7266H14.3867V32.3086C14.3867 33.7625 13.2039 34.9453 11.75 34.9453H7.35547C7.06423 34.9453 6.82812 35.1814 6.82812 35.4727C6.82812 35.764 7.06423 36 7.35547 36H29.6445C29.9358 36 30.1719 35.764 30.1719 35.4727C30.1719 35.1814 29.9358 34.9453 29.6445 34.9453H25.25C23.7961 34.9453 22.6133 33.7625 22.6133 32.3086V30.7266H33.8633C35.3172 30.7266 36.5 29.5438 36.5 28.0898V6.99609C36.5 5.7228 35.5927 4.65743 34.3906 4.41246ZM3.66406 1.05469H14.2812C16.3167 1.05469 17.9727 2.71069 17.9727 4.74609C17.9727 5.0374 18.2088 5.27344 18.5 5.27344C18.7912 5.27344 19.0273 5.0374 19.0273 4.74609C19.0273 2.71069 20.6833 1.05469 22.7188 1.05469H33.3359V21.2344H22.7188C21.2295 21.2344 19.8982 21.924 19.0273 23.0006V6.85547C19.0273 6.56416 18.7912 6.32812 18.5 6.32812C18.2088 6.32812 17.9727 6.56416 17.9727 6.85547V23.0006C17.1018 21.924 15.7705 21.2344 14.2812 21.2344H3.66406V1.05469ZM22.7188 23.3438C21.3595 23.3438 20.071 23.9389 19.1775 24.9405C19.6277 23.41 21.0444 22.2891 22.7188 22.2891H33.3359V23.3438H22.7188ZM33.3359 24.3984V25.4531H20.1453C20.8281 24.7877 21.7505 24.3984 22.7188 24.3984H33.3359ZM3.66406 22.2891H14.2812C15.9556 22.2891 17.3723 23.41 17.8225 24.9405C16.929 23.9389 15.6405 23.3438 14.2812 23.3438H3.66406V22.2891ZM1.55469 6.99609C1.55469 6.30865 1.99562 5.72245 2.60938 5.50477V25.4531H1.55469V6.99609ZM22.6701 34.9453H14.3299C15.0151 34.2747 15.4414 33.3408 15.4414 32.3086V30.7266H21.5586V32.3086C21.5586 33.3408 21.9849 34.2747 22.6701 34.9453ZM35.4453 28.0898C35.4453 28.9621 34.7356 29.6719 33.8633 29.6719H3.13672C2.26435 29.6719 1.55469 28.9621 1.55469 28.0898V26.5078H3.13672C3.42795 26.5078 3.66406 26.2718 3.66406 25.9805V24.3984H14.2812C15.2495 24.3984 16.172 24.7877 16.8547 25.4531H5.24609C4.95486 25.4531 4.71875 25.6892 4.71875 25.9805C4.71875 26.2718 4.95486 26.5078 5.24609 26.5078H35.4453V28.0898ZM35.4453 25.4531H34.3906V5.50477C35.0044 5.72245 35.4453 6.30865 35.4453 6.99609V25.4531Z" fill="#68A7CF"/>
<path d="M11.6169 7.875L12.2635 7.22841C12.4695 7.02239 12.4695 6.68855 12.2635 6.48253C12.0576 6.27666 11.7236 6.27666 11.5178 6.48253L10.8711 7.12913L10.2244 6.48253C10.0185 6.27666 9.68458 6.27666 9.47871 6.48253C9.27276 6.68855 9.27276 7.02239 9.47871 7.22834L10.1253 7.87493L9.47871 8.52152C9.27276 8.72754 9.27276 9.06138 9.47871 9.26733C9.58165 9.37027 9.71665 9.42173 9.85158 9.42173C9.98651 9.42173 10.1215 9.37027 10.2244 9.26733L10.8711 8.62073L11.5178 9.26733C11.6207 9.37027 11.7557 9.42173 11.8906 9.42173C12.0256 9.42173 12.1606 9.37027 12.2635 9.26733C12.4695 9.06131 12.4695 8.72747 12.2635 8.52152L11.6169 7.875Z" fill="#68A7CF"/>
<path d="M14.3867 4.21875H7.35547C7.06423 4.21875 6.82812 4.45479 6.82812 4.74609V11.0039C6.82812 11.2952 7.06423 11.5312 7.35547 11.5312H14.3867C14.678 11.5312 14.9141 11.2952 14.9141 11.0039V4.74609C14.9141 4.45479 14.678 4.21875 14.3867 4.21875ZM13.8594 10.4766H7.88281V5.27344H13.8594V10.4766Z" fill="#68A7CF"/>
<path d="M14.3867 12.6562H7.35547C7.06423 12.6562 6.82812 12.8923 6.82812 13.1836C6.82812 13.4749 7.06423 13.7109 7.35547 13.7109H14.3867C14.678 13.7109 14.9141 13.4749 14.9141 13.1836C14.9141 12.8923 14.678 12.6562 14.3867 12.6562Z" fill="#68A7CF"/>
<path d="M14.3867 14.8359H7.35547C7.06423 14.8359 6.82812 15.072 6.82812 15.3633C6.82812 15.6546 7.06423 15.8906 7.35547 15.8906H14.3867C14.678 15.8906 14.9141 15.6546 14.9141 15.3633C14.9141 15.072 14.678 14.8359 14.3867 14.8359Z" fill="#68A7CF"/>
<path d="M27.5213 8.52152L26.8747 7.875L27.5213 7.22841C27.7272 7.02239 27.7272 6.68855 27.5213 6.48253C27.3154 6.27666 26.9814 6.27666 26.7756 6.48253L26.1289 7.12913L25.4822 6.48253C25.2763 6.27666 24.9424 6.27666 24.7365 6.48253C24.5305 6.68855 24.5305 7.02239 24.7365 7.22834L25.3831 7.87493L24.7365 8.52152C24.5305 8.72754 24.5305 9.06138 24.7365 9.26733C24.8394 9.37027 24.9744 9.42173 25.1094 9.42173C25.2443 9.42173 25.3793 9.37027 25.4822 9.26733L26.1289 8.62073L26.7756 9.26733C26.8785 9.37027 27.0135 9.42173 27.1484 9.42173C27.2834 9.42173 27.4184 9.37027 27.5213 9.26733C27.7272 9.06131 27.7272 8.72747 27.5213 8.52152Z" fill="#68A7CF"/>
<path d="M29.6445 4.21875H22.6133C22.322 4.21875 22.0859 4.45479 22.0859 4.74609V11.0039C22.0859 11.2952 22.322 11.5312 22.6133 11.5312H29.6445C29.9358 11.5312 30.1719 11.2952 30.1719 11.0039V4.74609C30.1719 4.45479 29.9358 4.21875 29.6445 4.21875ZM29.1172 10.4766H23.1406V5.27344H29.1172V10.4766Z" fill="#68A7CF"/>
<path d="M29.6445 12.6562H22.6133C22.322 12.6562 22.0859 12.8923 22.0859 13.1836C22.0859 13.4749 22.322 13.7109 22.6133 13.7109H29.6445C29.9358 13.7109 30.1719 13.4749 30.1719 13.1836C30.1719 12.8923 29.9358 12.6562 29.6445 12.6562Z" fill="#68A7CF"/>
<path d="M29.6445 14.8359H22.6133C22.322 14.8359 22.0859 15.072 22.0859 15.3633C22.0859 15.6546 22.322 15.8906 22.6133 15.8906H29.6445C29.9358 15.8906 30.1719 15.6546 30.1719 15.3633C30.1719 15.072 29.9358 14.8359 29.6445 14.8359Z" fill="#68A7CF"/>
<path d="M14.3867 17.0156H7.35547C7.06423 17.0156 6.82812 17.2517 6.82812 17.543C6.82812 17.8343 7.06423 18.0703 7.35547 18.0703H14.3867C14.678 18.0703 14.9141 17.8343 14.9141 17.543C14.9141 17.2517 14.678 17.0156 14.3867 17.0156Z" fill="white"/>
<path d="M29.6445 17.0156H22.6133C22.322 17.0156 22.0859 17.2517 22.0859 17.543C22.0859 17.8343 22.322 18.0703 22.6133 18.0703H29.6445C29.9358 18.0703 30.1719 17.8343 30.1719 17.543C30.1719 17.2517 29.9358 17.0156 29.6445 17.0156Z" fill="#68A7CF"/>
</g>
<defs>
<clipPath id="clip0">
<rect width="36" height="36" fill="white" transform="translate(0.5)"/>
</clipPath>
</defs>
</svg>
