<svg width="28" height="22" viewBox="0 0 28 22" fill="none" xmlns="http://www.w3.org/2000/svg">
<path d="M26.3594 16.8833V14.2812C26.3594 11.5803 25.4885 9.01315 23.8409 6.85726C22.3783 4.94358 20.3562 3.47593 18.0985 2.67678C18.0357 1.37538 16.9573 0.335938 15.6406 0.335938H12.3594C11.0427 0.335938 9.96434 1.37538 9.9015 2.67678C7.64378 3.47593 5.62166 4.94358 4.15915 6.85726C2.51152 9.01315 1.64062 11.5803 1.64062 14.2812V16.8833C0.685836 17.2219 0 18.1337 0 19.2031C0 20.5601 1.10398 21.6641 2.46094 21.6641H25.5391C26.896 21.6641 28 20.5601 28 19.2031C28 18.1337 27.3142 17.2219 26.3594 16.8833ZM3.28125 14.2812C3.28125 11.3231 4.54486 8.55394 6.61719 6.57824V9.35938C6.61719 9.81241 6.98447 10.1797 7.4375 10.1797C7.89053 10.1797 8.25781 9.81241 8.25781 9.35938V5.29155C8.77472 4.96157 9.32296 4.6737 9.89844 4.43411V11C9.89844 11.453 10.2657 11.8203 10.7188 11.8203C11.1718 11.8203 11.5391 11.453 11.5391 11V3.28534C11.5391 3.2831 11.5391 3.28086 11.5391 3.27862V2.79688C11.5391 2.34455 11.9071 1.97656 12.3594 1.97656H15.6406C16.0929 1.97656 16.4609 2.34455 16.4609 2.79688V3.2784C16.4609 3.28075 16.4609 3.28305 16.4609 3.2854V11C16.4609 11.453 16.8282 11.8203 17.2812 11.8203C17.7343 11.8203 18.1016 11.453 18.1016 11V4.43411C18.677 4.67375 19.2253 4.96163 19.7422 5.29155V9.35938C19.7422 9.81241 20.1095 10.1797 20.5625 10.1797C21.0155 10.1797 21.3828 9.81241 21.3828 9.35938V6.57824C23.4551 8.55394 24.7188 11.3231 24.7188 14.2812V16.7422H3.28125V14.2812ZM25.5391 20.0234H2.46094C2.00862 20.0234 1.64062 19.6554 1.64062 19.2031C1.64062 18.7508 2.00862 18.3828 2.46094 18.3828H25.5391C25.9914 18.3828 26.3594 18.7508 26.3594 19.2031C26.3594 19.6554 25.9914 20.0234 25.5391 20.0234Z" fill="#fff"/>
</svg>
