<svg width="31" height="32" viewBox="0 0 31 32" fill="none" xmlns="http://www.w3.org/2000/svg">
<path fill-rule="evenodd" clip-rule="evenodd" d="M15.4528 0C6.95224 0 0.0611572 6.94961 0.0611572 15.5224C0.0611572 24.0952 6.95224 31.0448 15.4528 31.0448C23.9534 31.0448 30.8445 24.0952 30.8445 15.5224C30.8445 6.94961 23.9534 0 15.4528 0ZM12.0688 7.29367C12.9444 7.25348 13.2242 7.24365 15.4536 7.24365H15.451C17.6811 7.24365 17.9599 7.25348 18.8355 7.29367C19.7094 7.33403 20.3063 7.47356 20.8296 7.67828C21.37 7.88956 21.8267 8.17242 22.2833 8.63292C22.7399 9.09308 23.0204 9.55496 23.2307 10.0995C23.4326 10.6258 23.5711 11.2274 23.6121 12.1088C23.6515 12.9918 23.6617 13.274 23.6617 15.5223C23.6617 17.7707 23.6515 18.0522 23.6121 18.9352C23.5711 19.8162 23.4326 20.418 23.2307 20.9446C23.0204 21.4889 22.7399 21.9508 22.2833 22.4109C21.8272 22.8714 21.3699 23.155 20.8301 23.3664C20.3078 23.5711 19.7106 23.7107 18.8367 23.751C17.9611 23.7912 17.6822 23.801 15.4526 23.801C13.2233 23.801 12.9437 23.7912 12.0681 23.751C11.1943 23.7107 10.5977 23.5711 10.0754 23.3664C9.53579 23.155 9.0778 22.8714 8.62168 22.4109C8.16523 21.9508 7.88476 21.4889 7.67492 20.9444C7.47209 20.418 7.33373 19.8164 7.29354 18.9351C7.25386 18.052 7.24394 17.7707 7.24394 15.5223C7.24394 13.274 7.25421 12.9917 7.29337 12.1086C7.3327 11.2276 7.47123 10.6258 7.67474 10.0993C7.8851 9.55496 8.16557 9.09308 8.6222 8.63292C9.07848 8.17259 9.53647 7.88974 10.0764 7.67828C10.5983 7.47356 11.1949 7.33403 12.0688 7.29367Z" fill="#346789"/>
<path fill-rule="evenodd" clip-rule="evenodd" d="M14.7171 8.73547C14.8601 8.73524 15.0139 8.73531 15.1799 8.73539L15.4535 8.73547C17.6453 8.73547 17.9051 8.7434 18.7706 8.78307C19.571 8.81998 20.0054 8.95485 20.2948 9.06817C20.6779 9.21822 20.951 9.39759 21.2381 9.68735C21.5254 9.9771 21.7033 10.2531 21.8524 10.6394C21.9648 10.9309 22.0987 11.369 22.1351 12.1761C22.1744 13.0488 22.183 13.311 22.183 15.5204C22.183 17.7298 22.1744 17.9919 22.1351 18.8646C22.0985 19.6718 21.9648 20.1099 21.8524 20.4014C21.7036 20.7877 21.5254 21.0628 21.2381 21.3524C20.9508 21.6421 20.678 21.8215 20.2948 21.9716C20.0057 22.0854 19.571 22.2199 18.7706 22.2568C17.9053 22.2965 17.6453 22.3051 15.4535 22.3051C13.2616 22.3051 13.0018 22.2965 12.1364 22.2568C11.336 22.2196 10.9016 22.0847 10.6121 21.9714C10.229 21.8213 9.95539 21.642 9.66808 21.3522C9.38077 21.0624 9.2029 20.7872 9.05378 20.4007C8.94141 20.1092 8.80751 19.6711 8.77108 18.8639C8.73174 17.9912 8.72388 17.7291 8.72388 15.5183C8.72388 13.3076 8.73174 13.0468 8.77108 12.1741C8.80768 11.3669 8.94141 10.9288 9.05378 10.637C9.20256 10.2506 9.38077 9.97469 9.66808 9.68493C9.95539 9.39518 10.229 9.21581 10.6121 9.06541C10.9015 8.95158 11.336 8.81705 12.1364 8.77997C12.8937 8.74547 13.1872 8.73512 14.7171 8.7334V8.73547ZM19.8352 10.1102C19.2914 10.1102 18.8501 10.5547 18.8501 11.1033C18.8501 11.6518 19.2914 12.0968 19.8352 12.0968C20.3791 12.0968 20.8203 11.6518 20.8203 11.1033C20.8203 10.5548 20.3791 10.1099 19.8352 10.1099V10.1102ZM11.2379 15.5225C11.2379 13.1746 13.1254 11.2711 15.4534 11.271C17.7815 11.271 19.6685 13.1746 19.6685 15.5225C19.6685 17.8703 17.7817 19.773 15.4536 19.773C13.1255 19.773 11.2379 17.8703 11.2379 15.5225Z" fill="#346789"/>
<path fill-rule="evenodd" clip-rule="evenodd" d="M15.4536 12.7632C16.9647 12.7632 18.1899 13.9986 18.1899 15.5227C18.1899 17.0467 16.9647 18.2823 15.4536 18.2823C13.9423 18.2823 12.7173 17.0467 12.7173 15.5227C12.7173 13.9986 13.9423 12.7632 15.4536 12.7632V12.7632Z" fill="#346789"/>
</svg>
