<svg width="16" height="16" viewBox="0 0 16 16" fill="none" xmlns="http://www.w3.org/2000/svg">
<path d="M12.279 11.263L11.5126 12.0298C10.2099 13.3332 7.99132 12.2222 5.88381 10.1126C3.77486 8.0016 2.66505 5.78388 3.9682 4.48084C4.17507 4.27399 4.43041 4.0185 4.73422 3.7144C4.8568 3.5917 4.91287 3.53486 4.98017 3.46412C5.07187 3.36775 5.14722 3.28311 5.20755 3.20821C4.04218 1.58487 3.24998 0.570518 2.82292 0.148645C2.60236 -0.0692269 2.1085 -0.0291119 1.92719 0.149535C1.44364 0.625997 1.2847 0.784858 0.783036 1.29437C-1.02128 3.09967 0.359985 7.8902 4.23197 11.766C8.10274 15.6406 12.8925 17.0225 14.7106 15.2037C15.1681 14.7623 15.541 14.3893 15.828 14.0859C16.0354 13.8667 16.0725 13.4144 15.8339 13.1666C15.4366 12.7537 14.4638 11.9953 12.7841 10.7891C12.6617 10.8876 12.5112 11.0305 12.279 11.263Z" fill="#E2B33F"/>
</svg>
