<svg width="30" height="30" viewBox="0 0 30 30" fill="none" xmlns="http://www.w3.org/2000/svg">
<path fill-rule="evenodd" clip-rule="evenodd" d="M30 15C30 23.2843 23.2843 30 15 30C6.71573 30 0 23.2843 0 15C0 6.71573 6.71573 0 15 0C23.2843 0 30 6.71573 30 15ZM22.7159 15.0828C22.7159 15.6374 22.6557 16.1771 22.54 16.6983C22.8344 17.2826 23 17.9401 23 18.6365C23 21.0458 21.0188 22.9998 18.5748 22.9998C17.8175 22.9998 17.1063 22.8116 16.4826 22.4814C16.0292 22.564 15.5626 22.6075 15.0847 22.6075C10.8702 22.6075 7.45343 19.2393 7.45343 15.0828C7.45343 14.5653 7.50705 14.059 7.60771 13.5712C7.22201 12.922 7 12.169 7 11.364C7 8.95287 8.98118 6.99982 11.4262 6.99982C12.2907 6.99982 13.0978 7.24558 13.7799 7.66939C14.2051 7.59705 14.6406 7.55903 15.0847 7.55903C19.3001 7.55903 22.7159 10.9282 22.7159 15.0828Z" fill="#346789"/>
<path fill-rule="evenodd" clip-rule="evenodd" d="M18.9991 18.6794C18.6463 19.1727 18.1251 19.5622 17.4478 19.8386C16.7789 20.1131 15.9774 20.2531 15.064 20.2531C13.968 20.2531 13.0489 20.063 12.3312 19.6874C11.8185 19.4148 11.3961 19.0457 11.0753 18.5876C10.7507 18.1276 10.587 17.6704 10.587 17.228C10.587 16.9535 10.6943 16.7143 10.905 16.5186C11.1138 16.3238 11.382 16.2265 11.7018 16.2265C11.9633 16.2265 12.19 16.3034 12.3735 16.4564C12.5494 16.6039 12.6999 16.8218 12.8213 17.101C12.9567 17.407 13.1035 17.6648 13.2587 17.8661C13.4092 18.0627 13.6247 18.2268 13.8994 18.3557C14.1759 18.4837 14.5494 18.5505 15.0075 18.5505C15.6388 18.5505 16.1562 18.4169 16.5447 18.1554C16.9257 17.9004 17.1101 17.5925 17.1101 17.216C17.1101 16.9201 17.0132 16.6864 16.8156 16.5028C16.6068 16.3118 16.333 16.1634 16.001 16.0595C15.6538 15.9538 15.1835 15.8379 14.6011 15.7173C13.8081 15.5504 13.1355 15.3529 12.6011 15.1275C12.0536 14.8985 11.6124 14.5804 11.2898 14.1825C10.9624 13.7773 10.7959 13.27 10.7959 12.6737C10.7959 12.1061 10.9699 11.5933 11.3142 11.1519C11.6548 10.7132 12.1534 10.3701 12.7959 10.1373C13.429 9.9064 14.1816 9.78955 15.0348 9.78955C15.7159 9.78955 16.3152 9.86745 16.8156 10.0214C17.3189 10.1753 17.7423 10.3831 18.0753 10.64C18.4111 10.8996 18.6614 11.175 18.8175 11.4625C18.9756 11.7528 19.0565 12.0412 19.0565 12.3204C19.0565 12.5893 18.9511 12.8341 18.7432 13.0465C18.5344 13.2616 18.27 13.3701 17.9596 13.3701C17.6773 13.3701 17.4553 13.3015 17.3029 13.168C17.1599 13.0428 17.0113 12.848 16.8467 12.5698C16.6567 12.2137 16.4262 11.9327 16.1618 11.7343C15.905 11.5414 15.477 11.4449 14.8871 11.4449C14.3415 11.4449 13.8956 11.5525 13.5654 11.7667C13.2474 11.9717 13.0922 12.2081 13.0922 12.4882C13.0922 12.6588 13.1421 12.8026 13.2455 12.925C13.3528 13.0567 13.5061 13.1698 13.6999 13.2663C13.9003 13.3655 14.1073 13.4453 14.3142 13.5009C14.5259 13.5593 14.8815 13.6456 15.3697 13.7569C15.9878 13.8867 16.5551 14.0341 17.0565 14.1927C17.5654 14.3522 18.0038 14.5488 18.3631 14.7798C18.7281 15.0144 19.017 15.3149 19.223 15.6747C19.429 16.0373 19.5334 16.4824 19.5334 17.0008C19.5334 17.6203 19.3528 18.1851 18.9991 18.6794Z" fill="#346789"/>
</svg>
