<svg width="30" height="30" viewBox="0 0 30 30" fill="none" xmlns="http://www.w3.org/2000/svg">
<path fill-rule="evenodd" clip-rule="evenodd" d="M15 30C23.2843 30 30 23.2843 30 15C30 6.71573 23.2843 0 15 0C6.71573 0 0 6.71573 0 15C0 23.2843 6.71573 30 15 30ZM12.25 21.8747C12.6149 21.8747 12.7816 21.7124 12.9831 21.5162L13 21.4997L14.8017 19.7479L18.55 22.5172C19.2399 22.8978 19.7377 22.7008 19.9095 21.8768L22.3702 10.2814C22.6221 9.27138 21.9852 8.81328 21.3252 9.11288L6.8765 14.6843C5.89023 15.0798 5.89598 15.6301 6.69672 15.8753L10.4046 17.0325L18.9887 11.6169C19.394 11.3712 19.7659 11.5033 19.4606 11.7742L12.5055 18.0507L12.5053 18.0506L12.5053 18.0509L12.505 18.0511L12.5053 18.0512L12.25 21.8747Z" fill="#346789"/>
</svg>
