<svg width="31" height="32" viewBox="0 0 31 32" fill="none" xmlns="http://www.w3.org/2000/svg">
<path fill-rule="evenodd" clip-rule="evenodd" d="M15.3917 0C6.89108 0 0 6.94961 0 15.5224C0 24.0952 6.89108 31.0448 15.3917 31.0448C23.8922 31.0448 30.7833 24.0952 30.7833 15.5224C30.7833 6.94961 23.8922 0 15.3917 0ZM16.6449 20.4226C16.4932 20.584 16.1969 20.6166 16.1969 20.6166H15.2156C15.2156 20.6166 13.0507 20.7454 11.1436 18.7803C9.06386 16.6365 7.22741 12.3829 7.22741 12.3829C7.22741 12.3829 7.12141 12.1039 7.23624 11.9695C7.36552 11.8177 7.71804 11.8082 7.71804 11.8082L10.0636 11.7931C10.0636 11.7931 10.2844 11.8288 10.4426 11.9441C10.5735 12.0395 10.6466 12.2168 10.6466 12.2168C10.6466 12.2168 11.0256 13.1659 11.5274 14.0244C12.5079 15.7009 12.964 16.0673 13.2964 15.8877C13.7814 15.6261 13.6361 13.518 13.6361 13.518C13.6361 13.518 13.6449 12.7533 13.392 12.4123C13.1961 12.1484 12.8267 12.0713 12.6637 12.0498C12.5312 12.0323 12.748 11.7287 13.029 11.5928C13.4514 11.3885 14.1966 11.3765 15.0775 11.3853C15.764 11.3924 15.9616 11.4346 16.2298 11.499C16.8522 11.6477 16.8328 12.1242 16.7909 13.1526C16.7783 13.4602 16.7638 13.8172 16.7638 14.2295C16.7638 14.3221 16.761 14.4209 16.7582 14.5225C16.7437 15.0494 16.727 15.6528 17.0777 15.8773C17.2576 15.9918 17.6968 15.894 18.7961 14.0467C19.3173 13.1707 19.7075 12.1412 19.7075 12.1412C19.7075 12.1412 19.7935 11.9576 19.926 11.8789C20.0617 11.7986 20.2447 11.8233 20.2447 11.8233L22.7131 11.8082C22.7131 11.8082 23.4551 11.7199 23.5748 12.0522C23.7008 12.3996 23.2977 13.212 22.2892 14.5427C21.332 15.8059 20.8665 16.2706 20.9097 16.6818C20.9412 16.982 21.2438 17.2537 21.8242 17.7867C23.0366 18.901 23.3615 19.4872 23.4396 19.6281C23.4461 19.6397 23.4509 19.6484 23.4543 19.654C23.9979 20.5466 22.8513 20.6166 22.8513 20.6166L20.6583 20.6468C20.6583 20.6468 20.1877 20.739 19.5678 20.3177C19.2431 20.0972 18.9258 19.7371 18.6235 19.394C18.162 18.8702 17.7356 18.3862 17.3716 18.5005C16.7606 18.6929 16.779 19.9958 16.779 19.9958C16.779 19.9958 16.7838 20.2748 16.6449 20.4226Z" fill="#346789"/>
</svg>
