<svg width="30" height="30" viewBox="0 0 30 30" fill="none" xmlns="http://www.w3.org/2000/svg">
<path fill-rule="evenodd" clip-rule="evenodd" d="M30 15.0005C30 23.2848 23.2843 30.0005 15 30.0005C6.71573 30.0005 0 23.2848 0 15.0005C0 6.71622 6.71573 0.000488281 15 0.000488281C23.2843 0.000488281 30 6.71622 30 15.0005ZM15.4907 23.3456H15.4944C20.4122 23.3436 24.4119 19.343 24.4138 14.4263C24.4148 12.043 23.4879 9.80207 21.8039 8.11619C20.1199 6.43023 17.8804 5.50134 15.4943 5.50031C10.578 5.50031 6.57673 9.50137 6.57478 14.4192C6.57411 15.9912 6.98483 17.5256 7.76538 18.8783L6.49999 23.5003L11.2283 22.26C12.5311 22.9706 13.9979 23.3451 15.4907 23.3456Z" fill="#346789"/>
<path fill-rule="evenodd" clip-rule="evenodd" d="M11.7181 20.8064L11.4474 20.6457L8.64157 21.3818L9.39049 18.6461L9.21423 18.3656C8.47212 17.1853 8.08018 15.821 8.08075 14.4202C8.08237 10.3327 11.4081 7.00732 15.4974 7.00732C17.4775 7.00801 19.3389 7.78011 20.7386 9.18142C22.1382 10.5827 22.9086 12.4453 22.9078 14.4262C22.9062 18.514 19.5805 21.8398 15.4944 21.8398H15.4914C14.1611 21.8393 12.8564 21.4818 11.7181 20.8064ZM19.6828 16.3466C19.8382 16.4218 19.9432 16.4725 19.988 16.5473C20.0437 16.6402 20.0437 17.0865 19.8581 17.6071C19.6723 18.1277 18.7819 18.6029 18.3537 18.6668C17.9697 18.7242 17.4838 18.7482 16.95 18.5785C16.6263 18.4758 16.2112 18.3387 15.6795 18.109C13.5901 17.2069 12.1782 15.1819 11.9113 14.7991C11.8926 14.7723 11.8795 14.7536 11.8722 14.7438L11.8704 14.7414C11.7525 14.5841 10.9622 13.5296 10.9622 12.4383C10.9622 11.4118 11.4665 10.8737 11.6986 10.626C11.7145 10.609 11.7291 10.5934 11.7422 10.5791C11.9465 10.356 12.188 10.3002 12.3365 10.3002C12.4851 10.3002 12.6338 10.3016 12.7637 10.3081C12.7797 10.3089 12.7964 10.3088 12.8136 10.3087C12.9435 10.3079 13.1054 10.307 13.2651 10.6907C13.3266 10.8383 13.4165 11.0572 13.5113 11.2881C13.7031 11.755 13.915 12.2708 13.9523 12.3455C14.008 12.457 14.0451 12.5871 13.9708 12.736C13.9597 12.7583 13.9494 12.7793 13.9395 12.7994C13.8837 12.9134 13.8427 12.9971 13.748 13.1077C13.7107 13.1512 13.6723 13.1981 13.6338 13.2449C13.5571 13.3383 13.4804 13.4317 13.4137 13.4982C13.3021 13.6093 13.186 13.7299 13.316 13.953C13.446 14.1761 13.8932 14.9059 14.5558 15.4969C15.268 16.1322 15.887 16.4007 16.2007 16.5368C16.262 16.5633 16.3116 16.5849 16.3481 16.6031C16.5708 16.7147 16.7009 16.696 16.8309 16.5473C16.9609 16.3986 17.388 15.8965 17.5365 15.6734C17.6851 15.4504 17.8337 15.4875 18.038 15.5619C18.2423 15.6363 19.338 16.1754 19.5609 16.287C19.6044 16.3088 19.6451 16.3284 19.6828 16.3466Z" fill="#346789"/>
</svg>
